<svg width="213" height="68" viewBox="0 0 213 68" fill="none" xmlns="http://www.w3.org/2000/svg">
<g clip-path="url(#clip0)">
<path d="M161.632 18.4345H154.103L145.481 13.4291H153.01L161.632 18.4345ZM148.639 0C149.003 0 149.489 0 149.853 0C154.346 0 157.989 1.46499 160.539 4.51706C161.511 5.6158 162.239 6.83663 162.847 8.30162L148.639 0ZM140.988 3.17415C142.081 2.19749 143.295 1.46499 144.631 0.976661L163.94 12.2083C164.182 13.6733 164.304 15.1382 164.425 16.8474L156.289 12.0862C156.046 10.377 155.56 9.03411 154.589 8.05745C153.496 6.83663 152.039 6.22621 150.339 6.22621C149.246 6.22621 148.274 6.47038 147.424 6.95871L140.988 3.17415ZM137.223 8.54578C137.709 7.32496 138.316 6.22621 139.045 5.24955L145.36 8.91203C144.753 9.88869 144.388 11.2316 144.267 12.6966L137.223 8.54578ZM135.888 15.3824C135.888 13.9174 136.131 12.5745 136.373 11.3537L148.639 18.4345H144.267C144.267 19.167 144.388 19.7774 144.51 20.3878L135.888 15.3824ZM144.145 31.009C143.052 30.5206 141.96 29.9102 141.109 29.2998L144.145 31.009ZM157.018 30.8869C155.439 31.6194 153.617 31.9856 151.553 32.1077L137.223 23.684C136.616 22.219 136.252 20.5099 136.009 18.6786L157.018 30.8869ZM162.361 26.3698C161.632 27.4686 160.782 28.4452 159.811 29.2998L153.253 25.5153C153.496 25.3932 153.739 25.2711 153.982 25.0269C154.71 24.4165 155.196 23.684 155.682 22.4632L162.361 26.3698ZM161.268 22.5853L163.94 23.0736C163.818 23.4399 163.697 23.684 163.575 23.9282L161.268 22.5853ZM125.08 1.58707C125.323 1.34291 125.566 1.09874 125.93 0.976661C126.901 0.366248 128.116 0 129.452 0C129.573 0 129.816 0 129.937 0L134.309 2.56373L132.973 6.22621L125.08 1.58707ZM115.001 3.29623V0.610413H118.036L122.53 3.17415V5.00539C122.773 4.51706 123.137 4.15081 123.38 3.66248L129.816 7.32496C129.452 7.20287 128.966 7.20287 128.601 7.20287C127.509 7.20287 126.537 7.56912 125.687 8.17953C125.444 8.4237 125.201 8.66786 124.958 8.91203L115.001 3.29623ZM115.001 10.8653V6.47038L123.744 11.5978C123.501 12.4524 123.38 13.7953 123.258 15.6266L115.001 10.8653ZM115.001 18.4345V14.0395L123.137 18.8007C123.137 19.7774 123.137 20.754 123.137 21.9749V23.1957L115.001 18.4345ZM115.001 26.0036V21.6086L123.015 26.2478V30.6427L115.001 26.0036ZM118.644 31.3752H114.879V29.1777L118.644 31.3752ZM84.2771 15.7487C84.52 15.6266 84.8843 15.3824 85.1271 15.2603C86.0986 14.772 87.313 14.4057 88.7702 14.0395L95.2064 17.8241L94.4778 17.9461C92.4133 18.4345 90.9561 18.8007 90.2275 19.289L84.2771 15.7487ZM93.3848 31.8636C92.5348 32.1077 91.5633 32.1077 90.5918 32.1077C87.4344 32.1077 85.0057 31.2531 83.1842 29.544C81.7269 28.079 80.7554 26.3698 80.5126 24.4165L93.3848 31.8636ZM99.9424 28.079C98.8495 29.0557 97.878 29.9102 96.6636 30.5206L80.634 21.2424C80.8769 20.2657 81.2412 19.289 81.7269 18.4345C81.8484 18.1903 81.9698 17.9461 82.2127 17.702L88.6488 21.4865C88.6488 21.7307 88.5274 21.9749 88.5274 22.219C88.5274 23.3178 88.8917 24.2944 89.7417 25.149C90.5918 26.0036 91.6847 26.3698 93.0205 26.3698C93.992 26.3698 94.9635 26.1257 95.935 25.6373L99.9424 28.079ZM105.65 31.3752H101.035C100.792 30.8869 100.55 30.0323 100.307 29.0557C100.185 28.6894 100.064 28.3232 100.064 28.2011L105.65 31.3752ZM107.35 24.7828C107.471 25.7594 107.471 26.614 107.593 27.2244C107.714 28.079 107.957 28.8115 108.322 29.6661L98.2423 23.8061C98.6066 23.3178 98.8495 22.8294 99.0924 22.219C99.2138 21.7307 99.3352 21.1203 99.3352 20.1436L107.35 24.7828ZM107.229 17.2136V21.3645V21.6086L99.4567 17.0916V16.8474L99.0924 16.9695L92.8991 13.307C95.085 12.8187 96.9065 12.4524 98.2423 11.9641L107.229 17.2136ZM96.2993 0C98.9709 0.122083 101.035 0.48833 102.493 1.22083C104.193 2.0754 105.529 3.17415 106.257 4.51706C106.5 5.00539 106.743 5.49372 106.864 6.10413L96.2993 0ZM86.2201 1.70916C87.5559 0.976661 89.1346 0.48833 91.0775 0.244165L107.229 9.64452C107.229 10.377 107.229 11.1095 107.229 11.842V14.0395L99.2138 9.40036C99.0924 8.4237 98.7281 7.81329 98.1209 7.32496C97.3923 6.71454 95.935 6.34829 93.7491 6.34829L86.2201 1.70916ZM88.5274 10.1329L87.1916 9.88869L81.9698 6.83663C82.4555 5.6158 83.1842 4.51706 83.9128 3.66248L90.2275 7.32496C89.6203 7.93537 89.0131 8.78995 88.5274 10.1329Z" fill="#D42611"/>
<path d="M68.0046 13.4291C68.0046 11.1095 67.3974 9.27828 66.183 8.05745C65.0901 6.83663 63.6328 6.22621 61.9327 6.22621C60.2326 6.22621 58.7754 6.83662 57.561 8.17953C56.4681 9.40036 55.8609 11.2316 55.8609 13.4291H68.0046ZM67.5188 21.6086L75.5336 22.9515C74.5621 25.8815 72.862 28.2011 70.6762 29.7882C68.4903 31.3752 65.6973 32.1077 62.297 32.1077C56.9538 32.1077 53.0678 30.3986 50.5177 26.8582C48.4533 24.0503 47.4818 20.5099 47.4818 16.237C47.4818 11.1095 48.8176 7.20287 51.4892 4.27289C54.0393 1.46499 57.4396 0 61.447 0C65.9401 0 69.5832 1.46499 72.1334 4.51706C74.805 7.56912 76.0194 12.2083 75.8979 18.4345H55.7395C55.7395 20.8761 56.4681 22.7074 57.6824 24.0503C58.8968 25.3932 60.4755 26.0036 62.297 26.0036C63.5114 26.0036 64.6043 25.6373 65.4544 25.0269C66.4259 24.2944 67.0331 23.1957 67.5188 21.6086ZM9.71494 31.3752L0 0.610413H7.89339L13.6009 20.754L18.8227 0.610413H26.5946L31.695 20.754L37.5239 0.610413H45.5388L35.7024 31.3752H27.9304L22.7087 11.5978L17.4869 31.3752H9.71494Z" fill="white"/>
<path d="M168.068 36.5027H175.476V40.6535C178.148 37.4794 181.305 35.7702 184.948 35.7702C186.891 35.7702 188.591 36.1364 190.048 36.991C191.506 37.8456 192.72 39.0664 193.57 40.6535C194.906 39.0664 196.363 37.8456 197.942 36.991C199.521 36.1364 201.099 35.7702 202.921 35.7702C205.107 35.7702 207.05 36.2585 208.628 37.1131C210.207 38.0898 211.3 39.4327 212.15 41.1418C212.757 42.4847 213 44.5601 213 47.4901V67.1454H204.985V49.6876C204.985 46.6355 204.742 44.6822 204.135 43.8276C203.407 42.7289 202.192 42.1185 200.735 42.1185C199.642 42.1185 198.549 42.4847 197.578 43.0951C196.606 43.8276 195.877 44.8043 195.392 46.1472C194.906 47.4901 194.785 49.5655 194.785 52.4955V67.2675H186.77V50.4201C186.77 47.4901 186.648 45.5368 186.284 44.6822C186.041 43.8276 185.555 43.2172 184.948 42.7289C184.341 42.3627 183.491 42.1185 182.519 42.1185C181.305 42.1185 180.212 42.4847 179.119 43.0951C178.148 43.8276 177.419 44.6822 176.933 46.0251C176.448 47.246 176.326 49.4434 176.326 52.3734V67.2675H168.311V36.5027H168.068ZM152.767 52.4955C151.796 52.8618 150.096 53.228 147.91 53.7163C145.724 54.2047 144.145 54.693 143.538 55.1813C142.445 55.9138 141.96 56.8905 141.96 57.9892C141.96 59.088 142.324 60.0646 143.174 60.9192C144.024 61.7738 145.117 62.14 146.453 62.14C147.91 62.14 149.246 61.6517 150.582 60.675C151.553 59.9426 152.16 59.088 152.525 57.9892C152.767 57.2567 152.889 56.0359 152.889 54.0826V52.4955H152.767ZM141.96 46.0251L134.673 44.6822C135.523 41.6302 136.981 39.4327 138.924 37.9677C140.988 36.5027 143.903 35.7702 147.91 35.7702C151.553 35.7702 154.225 36.1364 155.925 37.1131C157.625 37.9677 158.961 39.0664 159.689 40.4093C160.418 41.7522 160.782 44.1939 160.782 47.7343L160.661 57.2567C160.661 59.9426 160.782 61.8959 161.025 63.2388C161.268 64.5817 161.754 65.9246 162.482 67.3896H154.468C154.225 66.9013 153.982 66.0467 153.739 65.07C153.617 64.5817 153.496 64.2154 153.496 64.0934C152.16 65.4363 150.703 66.4129 149.124 67.1454C147.546 67.8779 145.846 68.1221 144.145 68.1221C140.988 68.1221 138.559 67.2675 136.738 65.5583C134.916 63.8492 134.066 61.6517 134.066 59.088C134.066 57.3788 134.43 55.7917 135.281 54.4488C136.131 53.1059 137.223 52.0072 138.802 51.2747C140.259 50.5422 142.445 49.9318 145.238 49.3214C149.003 48.5889 151.674 47.9785 153.132 47.368V46.5135C153.132 44.9264 152.767 43.8276 152.039 43.0951C151.31 42.4847 149.853 42.1185 147.667 42.1185C146.21 42.1185 145.117 42.3627 144.267 42.9731C143.174 43.4614 142.445 44.5601 141.96 46.0251ZM121.315 49.3214C121.315 47.0018 120.708 45.1706 119.494 43.9497C118.401 42.7289 116.944 42.1185 115.243 42.1185C113.543 42.1185 112.086 42.7289 110.872 44.0718C109.779 45.4147 109.172 47.1239 109.172 49.3214H121.315ZM120.83 57.5009L128.844 58.8438C127.873 61.7738 126.173 64.0934 123.987 65.6804C121.801 67.2675 119.008 68 115.608 68C110.265 68 106.379 66.2908 103.828 62.7505C101.764 59.9426 100.792 56.4022 100.792 52.1293C100.792 47.0018 102.128 43.0952 104.8 40.1652C107.472 37.2352 110.75 35.8923 114.879 35.8923C119.372 35.8923 123.015 37.3573 125.566 40.4093C128.237 43.4614 129.452 48.1005 129.33 54.3267H109.172C109.172 56.7684 109.9 58.5996 111.115 59.9425C112.329 61.2855 113.908 61.8959 115.729 61.8959C116.944 61.8959 118.036 61.5296 118.887 60.9192C119.737 60.1867 120.465 59.088 120.83 57.5009ZM97.5137 36.5027V42.9731H91.9276V55.4255C91.9276 57.9892 91.9276 59.4542 92.049 59.8205C92.1705 60.1867 92.4133 60.553 92.7777 60.7971C93.142 61.0413 93.6277 61.1634 94.1135 61.1634C94.8421 61.1634 95.935 60.9192 97.3922 60.4309L98.1209 66.7792C96.2993 67.6338 94.1135 68 91.8062 68C90.3489 68 89.0131 67.7558 87.9202 67.2675C86.7058 66.7792 85.8558 66.1688 85.37 65.3142C84.7628 64.5817 84.3985 63.4829 84.2771 62.14C84.1556 61.1634 84.0342 59.3321 84.0342 56.4022V42.9731H80.2697V36.5027H84.0342V33.6948L92.049 35.0377V36.5027H97.5137Z" fill="white"/>
</g>
<defs>
<clipPath id="clip0">
<rect width="213" height="68" fill="white"/>
</clipPath>
</defs>
</svg>
